<?xml version="1.0" encoding="UTF-8" standalone="no"?>
<!-- Created with Inkscape (http://www.inkscape.org/) -->

<svg
   xmlns:dc="http://purl.org/dc/elements/1.1/"
   xmlns:cc="http://creativecommons.org/ns#"
   xmlns:rdf="http://www.w3.org/1999/02/22-rdf-syntax-ns#"
   xmlns:svg="http://www.w3.org/2000/svg"
   xmlns="http://www.w3.org/2000/svg"
   version="1.1"
   width="4300"
   height="5400"
   id="svg2">
  <metadata
     id="metadata8">
    <rdf:RDF>
      <cc:Work
         rdf:about="">
        <dc:format>image/svg+xml</dc:format>
        <dc:type
           rdf:resource="http://purl.org/dc/dcmitype/StillImage" />
        <dc:title></dc:title>
      </cc:Work>
    </rdf:RDF>
  </metadata>
  <defs
     id="defs6" />
  <g
     id="g4452">
    <path
       d="m 800.5814,1177.3256 c 0,0 13.41463,-104.8143 15.69767,-157.5374 1.90005,-43.87857 -0.56736,-87.84279 -1.68189,-131.74834 -1.62304,-63.93752 -4.99009,-127.81907 -7.28821,-191.73589 -1.1892,-33.07487 -3.7329,-66.13754 -3.36379,-99.23172 0.33399,-29.94574 1.09234,-60.01549 5.04569,-89.701 3.4546,-25.94044 8.40948,-51.84177 16.2583,-76.80648 10.34764,-32.91266 21.01582,-66.74319 40.36545,-95.30731 15.48936,-22.86556 34.96178,-44.47348 58.86628,-58.30565 24.99649,-14.46404 55.04691,-18.24108 83.5341,-22.98588 26.9644,-4.49116 54.5163,-5.04568 81.8521,-5.04568 27.3358,0 54.8877,0.55452 81.8521,5.04568 28.4872,4.7448 58.5376,8.52184 83.5341,22.98588 23.9045,13.83217 43.3769,35.44008 58.8663,58.30565 19.3496,28.56412 30.0178,62.39465 40.3654,95.30731 7.8488,24.96471 12.8037,50.86604 16.2583,76.80648 3.9533,29.68551 4.7117,59.75526 5.0457,89.701 0.3691,33.09418 -2.1746,66.15685 -3.3638,99.23172 -2.2981,63.91682 -5.6652,127.79837 -7.2882,191.73589 -1.1145,43.90555 -3.582,87.86977 -1.6819,131.74834 2.283,52.7231 15.6977,157.5374 15.6977,157.5374"
       id="path3810"
       style="color:#000000;fill:none;stroke:#000000;stroke-width:7;stroke-linecap:butt;stroke-linejoin:miter;stroke-miterlimit:4;stroke-opacity:1;stroke-dasharray:none;stroke-dashoffset:0;marker:none;visibility:visible;display:inline;overflow:visible;enable-background:accumulate" />
    <path
       d="m 832.53738,829.17358 c 0,0 -0.75539,110.25742 -1.12126,165.38621 -0.38199,57.55811 1.38663,115.16971 -1.12127,172.67441 -1.9197,44.0176 -10.26312,87.6906 -10.65199,131.7483 -0.34045,38.5718 0.13662,77.5856 7.28821,115.4901 5.56629,29.5022 12.86215,59.5478 27.47093,85.7766 8.96551,16.0968 24.40994,27.628 35.88039,42.0473 11.72717,14.742 26.59212,27.9408 33.63788,45.4111 5.42728,13.4572 5.60631,43.1686 5.60631,43.1686 0,0 15.9059,-45.6944 16.81894,-69.5182 1.60955,-41.9978 -10.90718,-83.4678 -20.18273,-124.4602 -6.61702,-29.2433 -20.15286,-56.7874 -25.2284,-86.3372 -8.49148,-49.4375 -7.11779,-100.1043 -8.40947,-150.2491 -1.09237,-42.4074 -0.43476,-84.8535 0.56063,-127.2633 0.61883,-26.3663 3.36379,-79.04904 3.36379,-79.04904"
       id="path3812"
       style="color:#000000;fill:none;stroke:#000000;stroke-width:7;stroke-linecap:butt;stroke-linejoin:miter;stroke-miterlimit:4;stroke-opacity:1;stroke-dasharray:none;stroke-dashoffset:0;marker:none;visibility:visible;display:inline;overflow:visible;enable-background:accumulate" />
    <path
       d="m 954.75499,997.36295 1.12126,43.72925 -6.16695,50.4568 -19.06146,31.3953 -14.57641,11.7733"
       id="path3814"
       style="color:#000000;fill:none;stroke:#000000;stroke-width:7;stroke-linecap:butt;stroke-linejoin:miter;stroke-miterlimit:4;stroke-opacity:1;stroke-dasharray:none;stroke-dashoffset:0;marker:none;visibility:visible;display:inline;overflow:visible;enable-background:accumulate" />
    <path
       d="m 469.80897,2805.9593 176.59884,14.0158 4.48505,-145.2035 -172.67442,-19.9024 z"
       id="path3818"
       style="color:#000000;fill:none;stroke:#000000;stroke-width:7;stroke-linecap:butt;stroke-linejoin:miter;stroke-miterlimit:4;stroke-opacity:1;stroke-dasharray:none;stroke-dashoffset:0;marker:none;visibility:visible;display:inline;overflow:visible;enable-background:accumulate" />
    <path
       d="m 811.88074,1179.6473 c 0,0 -67.36634,7.9812 -97.52083,22.1998 -34.42551,16.2324 -67.19286,39.5928 -90.38516,69.771 -27.06753,35.2207 -38.69005,80.3698 -51.5354,122.8921 -17.43182,57.7051 -27.596,117.6695 -34.09265,177.5989 -8.66179,79.9021 -4.52037,160.6776 -6.34281,241.0271 -1.25871,55.4955 -3.39683,110.9897 -3.17141,166.499 0.19755,48.6458 4.71598,97.2444 3.96426,145.8848 -0.35181,22.7641 -1.77009,45.5245 -3.96426,68.1853 -4.1641,43.0059 -14.07063,85.3669 -17.44275,128.4421 -3.8786,49.5451 -2.16508,99.3697 -3.17141,149.0562 -1.11334,54.97 -1.61581,109.954 -3.17141,164.9133 -0.80065,28.2868 -2.99386,56.5376 -3.17141,84.8352 -0.0852,13.5763 2.00472,27.1771 1.01071,40.7173 -0.72205,9.8356 -3.90764,19.3567 -5.04568,29.1529 -2.16036,18.5962 -2.2807,37.3731 -3.36378,56.0631 -1.74335,30.0837 -5.72484,60.1351 -5.04569,90.2616 0.33443,14.835 -2.34499,31.1164 4.48505,44.2899 4.3291,8.3498 11.97288,19.6799 21.30399,18.5008 9.4628,-1.1958 13.22704,-14.5029 16.25831,-23.5465 5.5878,-16.6708 0.95465,-35.1642 2.24252,-52.6993 0.92211,-12.5551 2.84441,-25.0198 3.92442,-37.5623 0.94808,-11.0103 2.24253,-33.0773 2.24253,-33.0773"
       id="path3820"
       style="color:#000000;fill:none;stroke:#000000;stroke-width:7;stroke-linecap:butt;stroke-linejoin:miter;stroke-miterlimit:4;stroke-opacity:1;stroke-dasharray:none;stroke-dashoffset:0;marker:none;visibility:visible;display:inline;overflow:visible;enable-background:accumulate" />
    <path
       d="m 497.2799,2977.5125 c 0,0 -0.33938,38.5168 0.56063,57.745 1.04343,22.2923 -1.16632,45.4508 5.60632,66.7151 5.13558,16.1243 14.50311,31.1198 25.78903,43.7292 6.23162,6.9624 13.68081,13.5262 22.42525,16.819 6.84081,2.576 15.81835,5.7898 21.86462,1.6819 11.4897,-7.8062 9.77475,-26.152 12.33389,-39.8049 12.28699,-65.5505 9.52135,-133.0442 14.01578,-199.5847 2.33475,-34.5662 1.90015,-69.4099 6.72757,-103.7168 1.46586,-10.4174 5.29562,-20.4126 6.72758,-30.8347 3.05766,-22.2543 1.76467,-44.9164 3.92442,-67.2757 2.68335,-27.7799 7.26097,-55.3454 11.21262,-82.9734 8.50954,-59.4946 18.4047,-118.7856 26.9103,-178.2808 5.33749,-37.3348 12.8366,-74.482 15.13704,-112.1262 1.88094,-30.7796 -0.93438,-61.6678 -1.12126,-92.5042 -0.10532,-17.3792 -0.99534,-34.7877 0,-52.1387 1.49747,-26.1045 6.95303,-51.8582 8.9701,-77.9277 3.982,-51.4652 3.26922,-103.1966 6.16694,-154.7342 3.76555,-66.9724 14.57641,-200.706 14.57641,-200.706"
       id="path3822"
       style="color:#000000;fill:none;stroke:#000000;stroke-width:7;stroke-linecap:butt;stroke-linejoin:miter;stroke-miterlimit:4;stroke-opacity:1;stroke-dasharray:none;stroke-dashoffset:0;marker:none;visibility:visible;display:inline;overflow:visible;enable-background:accumulate" />
    <path
       d="m 635.07468,2690.8237 30.92124,-209.313 15.85705,-227.5486 15.85704,-210.8987 9.51423,-160.1562"
       id="path3824"
       style="color:#000000;fill:none;stroke:#000000;stroke-width:7;stroke-linecap:butt;stroke-linejoin:miter;stroke-miterlimit:4;stroke-opacity:1;stroke-dasharray:none;stroke-dashoffset:0;marker:none;visibility:visible;display:inline;overflow:visible;enable-background:accumulate" />
    <path
       d="m 734.18122,1476.174 c 0,0 -20.17361,61.2816 -26.92124,92.7637 -7.55091,35.2299 -12.15689,71.1226 -15.06419,107.0351 -1.9624,24.2406 -5.67843,48.9694 -1.58571,72.9424 2.89875,16.9794 10.22011,33.0989 18.19987,48.364 5.94778,11.378 12.82186,22.5927 21.85704,31.7141 20.69144,20.889 72.14956,50.7425 72.14956,50.7425"
       id="path3826"
       style="color:#000000;fill:none;stroke:#000000;stroke-width:7;stroke-linecap:butt;stroke-linejoin:miter;stroke-miterlimit:4;stroke-opacity:1;stroke-dasharray:none;stroke-dashoffset:0;marker:none;visibility:visible;display:inline;overflow:visible;enable-background:accumulate" />
    <path
       d="m 840.42343,1167.7545 -0.79286,289.3911"
       id="path3830"
       style="color:#000000;fill:none;stroke:#000000;stroke-width:7;stroke-linecap:butt;stroke-linejoin:miter;stroke-miterlimit:4;stroke-opacity:1;stroke-dasharray:none;stroke-dashoffset:0;marker:none;visibility:visible;display:inline;overflow:visible;enable-background:accumulate" />
    <path
       d="m 808.70934,1177.2687 0,271.1555"
       id="path3832"
       style="color:#000000;fill:none;stroke:#000000;stroke-width:7;stroke-linecap:butt;stroke-linejoin:miter;stroke-miterlimit:4;stroke-opacity:1;stroke-dasharray:none;stroke-dashoffset:0;marker:none;visibility:visible;display:inline;overflow:visible;enable-background:accumulate" />
    <path
       d="m 800.78081,1177.2687 c 0,0 -26.75827,7.4021 -33.29979,18.2356 -8.19762,13.5762 -9.87931,34.573 -0.79286,47.5711 7.85343,11.2343 38.84977,13.4785 38.84977,13.4785"
       id="path3834"
       style="color:#000000;fill:none;stroke:#000000;stroke-width:7;stroke-linecap:butt;stroke-linejoin:miter;stroke-miterlimit:4;stroke-opacity:1;stroke-dasharray:none;stroke-dashoffset:0;marker:none;visibility:visible;display:inline;overflow:visible;enable-background:accumulate" />
    <path
       d="m 800.78081,1257.2687 c 0,0 -26.75827,7.4021 -33.29979,18.2356 -8.19762,13.5762 -9.87931,34.573 -0.79286,47.5711 7.85343,11.2343 38.84977,13.4785 38.84977,13.4785"
       id="path3836"
       style="color:#000000;fill:none;stroke:#000000;stroke-width:7;stroke-linecap:butt;stroke-linejoin:miter;stroke-miterlimit:4;stroke-opacity:1;stroke-dasharray:none;stroke-dashoffset:0;marker:none;visibility:visible;display:inline;overflow:visible;enable-background:accumulate" />
    <path
       d="m 800.78081,1337.2687 c 0,0 -26.75827,7.4021 -33.29979,18.2356 -8.19762,13.5762 -9.87931,34.573 -0.79286,47.5711 7.85343,11.2343 38.84977,13.4785 38.84977,13.4785"
       id="path3838"
       style="color:#000000;fill:none;stroke:#000000;stroke-width:7;stroke-linecap:butt;stroke-linejoin:miter;stroke-miterlimit:4;stroke-opacity:1;stroke-dasharray:none;stroke-dashoffset:0;marker:none;visibility:visible;display:inline;overflow:visible;enable-background:accumulate" />
    <path
       d="m 1089.8671,1218.2517 0,273.7794"
       id="path3840"
       style="color:#000000;fill:none;stroke:#000000;stroke-width:7;stroke-linecap:butt;stroke-linejoin:miter;stroke-miterlimit:4;stroke-opacity:1;stroke-dasharray:none;stroke-dashoffset:0;marker:none;visibility:visible;display:inline;overflow:visible;enable-background:accumulate" />
    <path
       d="m 720.70273,1815.0648 c 0,0 19.16051,126.9443 26.16413,190.7345 6.30913,57.4647 11.73716,115.0874 14.27134,172.8418 2.17806,49.6384 7.91604,99.8834 0.79285,149.0563 -4.5908,31.6912 -18.87234,61.2039 -27.74983,91.9708 -12.6914,43.9848 -27.79393,87.4571 -36.47121,132.4064 -8.46946,43.8728 -12.73161,88.5773 -15.06419,133.1992 -3.38024,64.6635 -1.7163,129.5813 1.58571,194.2488 5.31993,104.1872 21.77312,207.5424 29.33553,311.5909 7.48146,102.9347 6.06824,206.4714 15.85705,309.2124 5.61877,58.9733 16.19451,117.3691 24.57842,176.0132 4.76287,33.3155 12.345,66.3218 14.61416,99.8994 2.47705,36.6538 -1.77695,73.4746 -1.13567,110.2065 1.02058,58.4576 4.71979,116.8419 7.92852,175.2203 5.39234,98.1063 15.16068,195.97 19.02845,294.1482 2.20576,55.9904 -0.37054,112.1183 2.37856,168.0847 1.23615,25.1655 8.77035,50.2423 6.34282,75.321 -2.70014,27.8949 -14.08797,54.2979 -22.99272,80.8709 -7.20461,21.4996 -29.97437,41.405 -24.57842,63.4282 3.43154,14.0056 20.04632,21.2857 32.50695,28.5427 34.81217,20.2745 75.40024,28.6976 114.17073,39.6426 10.67637,3.014 21.42093,6.7243 32.50694,7.1357 16.80737,0.6237 36.4168,2.8512 49.94969,-7.1357 8.46599,-6.2476 10.62999,-18.4139 13.47849,-28.5427 6.69237,-23.7969 8.38747,-49.0194 7.92857,-73.7352 -0.8873,-47.7951 -15.60783,-94.3802 -20.6142,-141.9206 -3.80008,-36.0854 -6.33994,-72.3445 -7.13567,-108.6208 -0.8,-36.471 -0.23399,-73.0275 2.37855,-109.4136 5.14831,-71.7031 18.13754,-142.6319 26.16412,-214.0701 5.636,-50.1615 14.072,-100.1834 15.4428,-150.6419 1.2144,-44.6987 -6.6585,-89.2776 -6.4143,-133.9921 0.2212,-40.5048 4.5739,-80.8821 7.1356,-121.3064 7.3041,-115.2621 17.6505,-230.3374 23.4785,-345.6836 5.2307,-103.5243 8.159,-207.164 10.3071,-310.7981 1.32,-63.681 1.5857,-191.0774 1.5857,-191.0774"
       id="path3842"
       style="color:#000000;fill:none;stroke:#000000;stroke-width:7;stroke-linecap:butt;stroke-linejoin:miter;stroke-miterlimit:4;stroke-opacity:1;stroke-dasharray:none;stroke-dashoffset:0;marker:none;visibility:visible;display:inline;overflow:visible;enable-background:accumulate" />
    <path
       d="m 708.01709,1867.843 c 0,0 11.80228,129.4839 17.44276,194.2489 5.45374,62.6209 12.93644,125.1159 15.85704,187.906 1.39992,30.097 5.03727,60.556 0.79285,90.3851 -3.10957,21.8535 -13.17864,42.1438 -19.02845,63.4282 -8.9521,32.572 -17.88523,65.2036 -24.57842,98.3137 -9.22067,45.6131 -16.7613,91.653 -21.40701,137.9563 -5.73135,57.1237 -5.80714,114.6776 -7.92853,172.0489 -2.87369,77.7167 -4.01617,155.4886 -6.50122,233.2187 -3.64496,114.0109 -7.78412,228.0067 -12.33388,341.9851 -4.43178,111.0228 -13.26169,221.9114 -14.57641,333.0149 -1.10141,93.077 4.86261,186.1138 5.60631,279.1944 0.72862,91.1939 0.76613,182.4108 -1.12126,273.588 -2.07446,100.2144 -11.21263,300.4984 -11.21263,300.4984 0,0 141.85164,19.292 213.03987,26.6382 82.43541,8.5069 164.92579,20.1827 247.79899,20.1827 82.8732,0 165.3636,-11.6758 247.799,-20.1827 71.1882,-7.3462 213.0399,-26.6382 213.0399,-26.6382 0,0 -9.1382,-200.284 -11.2127,-300.4984 -1.8874,-91.1772 -1.8498,-182.3941 -1.1212,-273.588 0.7437,-93.0806 6.7077,-186.1174 5.6063,-279.1944 -1.3147,-111.1035 -10.1446,-221.9921 -14.5764,-333.0149 -4.5498,-113.9784 -8.6889,-227.9742 -12.3339,-341.9851 -2.485,-77.7301 -3.6275,-155.502 -6.5012,-233.2187 -2.1214,-57.3713 -2.1972,-114.9252 -7.9286,-172.0489 -4.6457,-46.3033 -12.1863,-92.3432 -21.407,-137.9563 -6.6932,-33.1101 -15.6263,-65.7417 -24.5784,-98.3137 -5.8498,-21.2844 -15.9188,-41.5747 -19.0284,-63.4282 -4.2444,-29.8291 -0.6071,-60.2881 0.7928,-90.3851 2.9206,-62.7901 10.4033,-125.2851 15.857,-187.906 5.6405,-64.765 17.4428,-194.2489 17.4428,-194.2489"
       id="path3844"
       style="color:#000000;fill:none;stroke:#000000;stroke-width:7;stroke-linecap:butt;stroke-linejoin:miter;stroke-miterlimit:4;stroke-opacity:1;stroke-dasharray:none;stroke-dashoffset:0;marker:none;visibility:visible;display:inline;overflow:visible;enable-background:accumulate" />
    <path
       d="m 761.82143,2307.088 c 0,0 28.86449,9.5772 43.7165,12.6809 42.0028,8.7776 84.83643,13.7607 127.64922,16.6499 52.1088,3.5165 104.45265,0.7928 156.67995,0.7928 52.2273,0 104.5712,2.7237 156.68,-0.7928 42.8128,-2.8892 85.6464,-7.8723 127.6492,-16.6499 14.852,-3.1037 43.7165,-12.6809 43.7165,-12.6809"
       id="path3846"
       style="color:#000000;fill:none;stroke:#000000;stroke-width:7;stroke-linecap:butt;stroke-linejoin:miter;stroke-miterlimit:4;stroke-opacity:1;stroke-dasharray:none;stroke-dashoffset:0;marker:none;visibility:visible;display:inline;overflow:visible;enable-background:accumulate" />
    <path
       d="m 1347.1968,829.17358 c 0,0 0.7554,110.25742 1.1213,165.38621 0.382,57.55811 -1.3867,115.16971 1.1212,172.67441 1.9197,44.0176 10.2631,87.6906 10.652,131.7483 0.3405,38.5718 -0.1366,77.5856 -7.2882,115.4901 -5.5663,29.5022 -12.8621,59.5478 -27.4709,85.7766 -8.9655,16.0968 -24.4099,27.628 -35.8804,42.0473 -11.7272,14.742 -26.5921,27.9408 -33.6379,45.4111 -5.4273,13.4572 -5.6063,43.1686 -5.6063,43.1686 0,0 -15.9059,-45.6944 -16.8189,-69.5182 -1.6095,-41.9978 10.9072,-83.4678 20.1827,-124.4602 6.617,-29.2433 20.1529,-56.7874 25.2284,-86.3372 8.4915,-49.4375 7.1178,-100.1043 8.4095,-150.2491 1.0924,-42.4074 0.4347,-84.8535 -0.5607,-127.2633 -0.6188,-26.3663 -3.3637,-79.04904 -3.3637,-79.04904"
       id="path4274"
       style="color:#000000;fill:none;stroke:#000000;stroke-width:7;stroke-linecap:butt;stroke-linejoin:miter;stroke-miterlimit:4;stroke-opacity:1;stroke-dasharray:none;stroke-dashoffset:0;marker:none;visibility:visible;display:inline;overflow:visible;enable-background:accumulate" />
    <path
       d="m 1224.9792,997.36295 -1.1213,43.72925 6.167,50.4568 19.0615,31.3953 14.5764,11.7733"
       id="path4276"
       style="color:#000000;fill:none;stroke:#000000;stroke-width:7;stroke-linecap:butt;stroke-linejoin:miter;stroke-miterlimit:4;stroke-opacity:1;stroke-dasharray:none;stroke-dashoffset:0;marker:none;visibility:visible;display:inline;overflow:visible;enable-background:accumulate" />
    <path
       d="m 1686.9394,2677.0141 c 0,0 -0.5497,-160.3549 -2.2426,-240.5108 -0.9594,-45.4256 -2.7131,-90.8322 -4.485,-136.2334 -2.1011,-53.8344 -5.4633,-107.6173 -7.2882,-161.4618 -1.9565,-57.7267 -1.2645,-115.5365 -3.9244,-173.235 -2.3551,-51.0866 -8.8756,-101.9423 -10.652,-153.0523 -1.0061,-28.9485 0,-57.9319 0,-86.8979 0,-31.3953 0,-94.186 0,-94.186 0,0 11.5991,-35.1458 15.137,-53.26 6.5945,-33.7642 9.0171,-68.2635 11.2126,-102.5955 1.8966,-29.6582 3.191,-59.46 1.6819,-89.1404 -1.8161,-35.7197 -2.3127,-72.3553 -12.8945,-106.5199 -13.4036,-43.2751 -28.8128,-90.5708 -62.7907,-120.5357 -25.4106,-22.4095 -61.6247,-31.6635 -95.3073,-35.3198 -24.1985,-2.6268 -50.0634,0.2399 -72.3214,10.0914 -18.6854,8.2703 -47.0931,39.2442 -47.0931,39.2442 0,0 -22.8778,1.912 -34.1985,0.5606 -19.9379,-2.38 -40.4613,-5.9302 -58.3056,-15.1371 -10.8445,-5.5953 -17.3213,-17.6983 -28.0316,-23.5465 -4.9803,-2.7194 -10.6294,-5.7627 -16.2583,-5.0457 -9.1571,1.1664 -15.6004,9.8784 -23.5465,14.5765 -21.6091,12.7763 -43.2137,25.63 -65.5938,37.0016 -26.1701,13.2974 -80.1703,36.4411 -80.1703,36.4411 0,0 -54.0002,-23.1437 -80.1703,-36.4411 -22.38015,-11.3716 -43.98474,-24.2253 -65.59381,-37.0016 -7.94609,-4.6981 -14.38944,-13.4101 -23.54651,-14.5765 -5.62894,-0.717 -11.27796,2.3263 -16.2583,5.0457 -10.71032,5.8482 -17.18704,17.9512 -28.03157,23.5465 -17.84429,9.2069 -38.36768,12.7571 -58.30564,15.1371 -11.32066,1.3514 -34.19851,-0.5606 -34.19851,-0.5606 0,0 -28.40767,-30.9739 -47.09302,-39.2442 -22.25796,-9.8515 -48.12289,-12.7182 -72.32143,-10.0914 -33.68259,3.6563 -69.89667,12.9103 -95.30731,35.3198 -33.97789,29.9649 -49.38712,77.2606 -62.7907,120.5357 -10.58179,34.1646 -11.07838,70.8002 -12.89452,106.5199 -1.50908,29.6804 -0.2147,59.4822 1.6819,89.1404 2.19548,34.332 4.6181,68.8313 11.21262,102.5955 3.5379,18.1142 15.13704,53.26 15.13704,53.26 0,0 0,62.7907 0,94.186 0,28.966 1.00615,57.9494 0,86.8979 -1.7764,51.11 -8.2969,101.9657 -10.65199,153.0523 -2.65991,57.6985 -1.96795,115.5083 -3.92442,173.235 -1.8249,53.8445 -5.1871,107.6274 -7.2882,161.4618 -1.77196,45.4012 -3.52566,90.8078 -4.48505,136.2334 -1.69289,80.1559 -2.24253,240.5108 -2.24253,240.5108"
       id="path4278"
       style="color:#000000;fill:none;stroke:#000000;stroke-width:7;stroke-linecap:butt;stroke-linejoin:miter;stroke-miterlimit:4;stroke-opacity:1;stroke-dasharray:none;stroke-dashoffset:0;marker:none;visibility:visible;display:inline;overflow:visible;enable-background:accumulate" />
    <path
       d="m 1709.9252,2805.9593 -176.5988,14.0158 -4.4851,-145.2035 172.6745,-19.9024 z"
       id="path4280"
       style="color:#000000;fill:none;stroke:#000000;stroke-width:7;stroke-linecap:butt;stroke-linejoin:miter;stroke-miterlimit:4;stroke-opacity:1;stroke-dasharray:none;stroke-dashoffset:0;marker:none;visibility:visible;display:inline;overflow:visible;enable-background:accumulate" />
    <path
       d="m 1367.8535,1179.6473 c 0,0 67.3663,7.9812 97.5208,22.1998 34.4255,16.2324 67.1929,39.5928 90.3852,69.771 27.0675,35.2207 38.6901,80.3698 51.5354,122.8921 17.4318,57.7051 27.596,117.6695 34.0926,177.5989 8.6618,79.9021 4.5204,160.6776 6.3428,241.0271 1.2587,55.4955 3.3968,110.9897 3.1714,166.499 -0.1975,48.6458 -4.7159,97.2444 -3.9642,145.8848 0.3518,22.7641 1.77,45.5245 3.9642,68.1853 4.1641,43.0059 14.0707,85.3669 17.4428,128.4421 3.8786,49.5451 2.1651,99.3697 3.1714,149.0562 1.1133,54.97 1.6158,109.954 3.1714,164.9133 0.8006,28.2868 2.9939,56.5376 3.1714,84.8352 0.085,13.5763 -2.0047,27.1771 -1.0107,40.7173 0.7221,9.8356 3.9077,19.3567 5.0457,29.1529 2.1604,18.5962 2.2807,37.3731 3.3638,56.0631 1.7433,30.0837 5.7248,60.1351 5.0456,90.2616 -0.3344,14.835 2.345,31.1164 -4.485,44.2899 -4.3291,8.3498 -11.9729,19.6799 -21.304,18.5008 -9.4628,-1.1958 -13.227,-14.5029 -16.2583,-23.5465 -5.5878,-16.6708 -0.9546,-35.1642 -2.2425,-52.6993 -0.9221,-12.5551 -2.8445,-25.0198 -3.9245,-37.5623 -0.9481,-11.0103 -2.2425,-33.0773 -2.2425,-33.0773"
       id="path4282"
       style="color:#000000;fill:none;stroke:#000000;stroke-width:7;stroke-linecap:butt;stroke-linejoin:miter;stroke-miterlimit:4;stroke-opacity:1;stroke-dasharray:none;stroke-dashoffset:0;marker:none;visibility:visible;display:inline;overflow:visible;enable-background:accumulate" />
    <path
       d="m 1682.4543,2977.5125 c 0,0 0.3394,38.5168 -0.5606,57.745 -1.0434,22.2923 1.1662,45.4508 -5.6064,66.7151 -5.1356,16.1243 -14.5031,31.1198 -25.789,43.7292 -6.2316,6.9624 -13.6808,13.5262 -22.4252,16.819 -6.8408,2.576 -15.8183,5.7898 -21.8646,1.6819 -11.4897,-7.8062 -9.7748,-26.152 -12.3339,-39.8049 -12.287,-65.5505 -9.5214,-133.0442 -14.0158,-199.5847 -2.3348,-34.5662 -1.9002,-69.4099 -6.7276,-103.7168 -1.4659,-10.4174 -5.2956,-20.4126 -6.7276,-30.8347 -3.0577,-22.2543 -1.7647,-44.9164 -3.9244,-67.2757 -2.6833,-27.7799 -7.261,-55.3454 -11.2126,-82.9734 -8.5095,-59.4946 -18.4047,-118.7856 -26.9103,-178.2808 -5.3375,-37.3348 -12.8366,-74.482 -15.137,-112.1262 -1.8809,-30.7796 0.9343,-61.6678 1.1212,-92.5042 0.1053,-17.3792 0.9953,-34.7877 0,-52.1387 -1.4975,-26.1045 -6.953,-51.8582 -8.9701,-77.9277 -3.982,-51.4652 -3.2692,-103.1966 -6.1669,-154.7342 -3.7655,-66.9724 -14.5764,-200.706 -14.5764,-200.706"
       id="path4284"
       style="color:#000000;fill:none;stroke:#000000;stroke-width:7;stroke-linecap:butt;stroke-linejoin:miter;stroke-miterlimit:4;stroke-opacity:1;stroke-dasharray:none;stroke-dashoffset:0;marker:none;visibility:visible;display:inline;overflow:visible;enable-background:accumulate" />
    <path
       d="m 1544.6595,2690.8237 -30.9212,-209.313 -15.8571,-227.5486 -15.857,-210.8987 -9.5142,-160.1562"
       id="path4286"
       style="color:#000000;fill:none;stroke:#000000;stroke-width:7;stroke-linecap:butt;stroke-linejoin:miter;stroke-miterlimit:4;stroke-opacity:1;stroke-dasharray:none;stroke-dashoffset:0;marker:none;visibility:visible;display:inline;overflow:visible;enable-background:accumulate" />
    <path
       d="m 1445.553,1476.174 c 0,0 20.1736,61.2816 26.9212,92.7637 7.5509,35.2299 12.1569,71.1226 15.0642,107.0351 1.9624,24.2406 5.6784,48.9694 1.5857,72.9424 -2.8988,16.9794 -10.2201,33.0988 -18.1999,48.364 -5.9478,11.378 -12.8218,22.5927 -21.857,31.7141 -20.6914,20.889 -72.1496,50.7425 -72.1496,50.7425"
       id="path4288"
       style="color:#000000;fill:none;stroke:#000000;stroke-width:7;stroke-linecap:butt;stroke-linejoin:miter;stroke-miterlimit:4;stroke-opacity:1;stroke-dasharray:none;stroke-dashoffset:0;marker:none;visibility:visible;display:inline;overflow:visible;enable-background:accumulate" />
    <path
       d="m 1453.4815,1499.9596 c 0,0 -27.9122,-24.0768 -42.814,-34.8855 -10.6817,-7.7477 -33.2998,-21.407 -33.2998,-21.407 0,0 -95.019,32.267 -144.2991,40.4354 -47.1634,7.8176 -95.3946,7.9286 -143.2015,7.9286 -47.8069,0 -96.03805,-0.111 -143.20147,-7.9286 -49.28009,-8.1684 -144.29911,-40.4354 -144.29911,-40.4354 0,0 -22.6181,13.6593 -33.2998,21.407 -14.90184,10.8087 -42.81402,34.8855 -42.81402,34.8855"
       id="path4290"
       style="color:#000000;fill:none;stroke:#000000;stroke-width:7;stroke-linecap:butt;stroke-linejoin:miter;stroke-miterlimit:4;stroke-opacity:1;stroke-dasharray:none;stroke-dashoffset:0;marker:none;visibility:visible;display:inline;overflow:visible;enable-background:accumulate" />
    <path
       d="m 1339.3108,1167.7545 0.7928,289.3911"
       id="path4292"
       style="color:#000000;fill:none;stroke:#000000;stroke-width:7;stroke-linecap:butt;stroke-linejoin:miter;stroke-miterlimit:4;stroke-opacity:1;stroke-dasharray:none;stroke-dashoffset:0;marker:none;visibility:visible;display:inline;overflow:visible;enable-background:accumulate" />
    <path
       d="m 1371.0249,1177.2687 0,271.1555"
       id="path4294"
       style="color:#000000;fill:none;stroke:#000000;stroke-width:7;stroke-linecap:butt;stroke-linejoin:miter;stroke-miterlimit:4;stroke-opacity:1;stroke-dasharray:none;stroke-dashoffset:0;marker:none;visibility:visible;display:inline;overflow:visible;enable-background:accumulate" />
    <path
       d="m 1378.9534,1177.2687 c 0,0 26.7583,7.4021 33.2998,18.2356 8.1976,13.5762 9.8793,34.573 0.7928,47.5711 -7.8534,11.2343 -38.8497,13.4785 -38.8497,13.4785"
       id="path4296"
       style="color:#000000;fill:none;stroke:#000000;stroke-width:7;stroke-linecap:butt;stroke-linejoin:miter;stroke-miterlimit:4;stroke-opacity:1;stroke-dasharray:none;stroke-dashoffset:0;marker:none;visibility:visible;display:inline;overflow:visible;enable-background:accumulate" />
    <path
       d="m 1378.9534,1257.2687 c 0,0 26.7583,7.4021 33.2998,18.2356 8.1976,13.5762 9.8793,34.573 0.7928,47.5711 -7.8534,11.2343 -38.8497,13.4785 -38.8497,13.4785"
       id="path4298"
       style="color:#000000;fill:none;stroke:#000000;stroke-width:7;stroke-linecap:butt;stroke-linejoin:miter;stroke-miterlimit:4;stroke-opacity:1;stroke-dasharray:none;stroke-dashoffset:0;marker:none;visibility:visible;display:inline;overflow:visible;enable-background:accumulate" />
    <path
       d="m 1378.9534,1337.2687 c 0,0 26.7583,7.4021 33.2998,18.2356 8.1976,13.5762 9.8793,34.573 0.7928,47.5711 -7.8534,11.2343 -38.8497,13.4785 -38.8497,13.4785"
       id="path4300"
       style="color:#000000;fill:none;stroke:#000000;stroke-width:7;stroke-linecap:butt;stroke-linejoin:miter;stroke-miterlimit:4;stroke-opacity:1;stroke-dasharray:none;stroke-dashoffset:0;marker:none;visibility:visible;display:inline;overflow:visible;enable-background:accumulate" />
    <path
       d="m 1089.8671,1218.2517 0,273.7794"
       id="path4302"
       style="color:#000000;fill:none;stroke:#000000;stroke-width:7;stroke-linecap:butt;stroke-linejoin:miter;stroke-miterlimit:4;stroke-opacity:1;stroke-dasharray:none;stroke-dashoffset:0;marker:none;visibility:visible;display:inline;overflow:visible;enable-background:accumulate" />
    <path
       d="m 1459.0315,1815.0648 c 0,0 -19.1606,126.9443 -26.1642,190.7345 -6.3091,57.4647 -11.7371,115.0874 -14.2713,172.8418 -2.1781,49.6384 -7.9161,99.8834 -0.7929,149.0563 4.5908,31.6912 18.8724,61.2039 27.7499,91.9708 12.6914,43.9848 27.7939,87.4571 36.4712,132.4064 8.4695,43.8728 12.7316,88.5773 15.0642,133.1992 3.3802,64.6635 1.7163,129.5813 -1.5857,194.2488 -5.3199,104.1872 -21.7732,207.5424 -29.3356,311.5909 -7.4815,102.9347 -6.0682,206.4714 -15.857,309.2124 -5.6188,58.9733 -16.1945,117.3691 -24.5784,176.0132 -4.7629,33.3155 -12.345,66.3218 -14.6142,99.8994 -2.4771,36.6538 1.777,73.4746 1.1357,110.2065 -1.0206,58.4576 -4.7198,116.8419 -7.9285,175.2203 -5.3923,98.1063 -15.1607,195.97 -19.0285,294.1482 -2.2058,55.9904 0.3705,112.1183 -2.3786,168.0847 -1.2361,25.1655 -8.7703,50.2424 -6.3428,75.321 2.7002,27.8949 14.088,54.2979 22.9928,80.8709 7.2046,21.4995 29.9744,41.405 24.5784,63.4282 -3.4316,14.0056 -20.0464,21.2857 -32.507,28.5427 -34.8122,20.2745 -75.4002,28.6976 -114.1707,39.6426 -10.6764,3.014 -21.4209,6.7243 -32.5069,7.1357 -16.8074,0.6237 -36.4168,2.8512 -49.9497,-7.1357 -8.466,-6.2476 -10.63,-18.4139 -13.4785,-28.5427 -6.6924,-23.7969 -8.3875,-49.0194 -7.9286,-73.7352 0.8873,-47.7951 15.6078,-94.3802 20.6142,-141.9206 3.8001,-36.0854 6.34,-72.3445 7.1357,-108.6208 0.8,-36.471 0.2339,-73.0275 -2.3786,-109.4136 -5.1483,-71.7031 -18.1375,-142.6319 -26.1641,-214.0701 -5.636,-50.1615 -14.072,-100.1834 -15.4428,-150.6419 -1.2144,-44.6987 6.6585,-89.2776 6.4143,-133.9921 -0.2212,-40.5048 -4.5739,-80.8821 -7.1356,-121.3064 -7.3041,-115.2621 -17.6505,-230.3374 -23.4785,-345.6836 -5.2307,-103.5243 -8.159,-207.164 -10.3071,-310.7981 -1.32,-63.681 -1.5857,-191.0774 -1.5857,-191.0774"
       id="path4304"
       style="color:#000000;fill:none;stroke:#000000;stroke-width:7;stroke-linecap:butt;stroke-linejoin:miter;stroke-miterlimit:4;stroke-opacity:1;stroke-dasharray:none;stroke-dashoffset:0;marker:none;visibility:visible;display:inline;overflow:visible;enable-background:accumulate" />
    <path
       d="m 1417.8031,2327.6974 c 0,0 17.2576,243.5786 17.4128,365.575 0.2322,182.5771 -12.2415,365.0222 -24.6678,547.1761 -8.9404,131.055 -16.1974,262.5654 -35.8804,392.4419 -10.7644,71.0276 -23.7259,142.1348 -44.8504,210.7973 -18.0417,58.6423 -40.1831,116.5443 -69.5183,170.4319 -14.8227,27.2287 -27.0897,59.6255 -53.26,76.2458 -33.4558,21.2472 -77.5394,20.1828 -117.1719,20.1828 -39.6325,0 -83.7161,1.0644 -117.17191,-20.1828 -26.17027,-16.6203 -38.43727,-49.0171 -53.25997,-76.2458 -29.33518,-53.8876 -51.47656,-111.7896 -69.51828,-170.4319 -21.12451,-68.6625 -34.08612,-139.7697 -44.85049,-210.7973 -19.68305,-129.8765 -26.93999,-261.3869 -35.8804,-392.4419 -12.42632,-182.1539 -24.9,-364.599 -24.66778,-547.1761 0.15517,-121.9964 17.41278,-365.575 17.41278,-365.575"
       id="path4310"
       style="color:#000000;fill:none;stroke:#000000;stroke-width:7;stroke-linecap:butt;stroke-linejoin:miter;stroke-miterlimit:4;stroke-opacity:1;stroke-dasharray:none;stroke-dashoffset:0;marker:none;visibility:visible;display:inline;overflow:visible;enable-background:accumulate" />
    <g
       id="g4556">
      <path
         d="m 1149.8547,969.81643 c 0,0 -29.8478,7.67419 -45.1309,8.9701 -10.8041,0.91612 -21.7711,0.57099 -32.5166,-0.87874 -15.0668,-2.03275 -44.2898,-10.89451 -44.2898,-10.89451"
         id="path3776"
         style="color:#000000;fill:none;stroke:#000000;stroke-width:7;stroke-linecap:butt;stroke-linejoin:miter;stroke-miterlimit:4;stroke-opacity:1;stroke-dasharray:none;stroke-dashoffset:0;marker:none;visibility:visible;display:inline;overflow:visible;enable-background:accumulate" />
      <path
         d="m 817.60507,562.59342 c 0,0 -0.4478,18.44165 1.12126,27.47093 2.19592,12.63657 9.27722,24.08823 11.49294,36.72135 1.47032,8.38315 0.90351,17.00039 1.12126,25.50872 0.3299,12.89064 1.86863,25.88689 0.28032,38.68356 -1.5102,12.1674 -8.27507,23.37818 -9.25042,35.60008 -1.25441,15.71873 1.75632,31.56221 4.48505,47.09302 4.45903,25.37896 9.8071,50.90551 19.34178,74.84427 13.23577,33.2311 30.19041,65.5031 51.93397,93.90573 12.4119,16.2131 28.36346,29.48853 44.00955,42.60798 25.89392,21.71244 51.49949,45.16014 82.13252,59.42694 20.4324,9.516 43.0541,16.4252 65.5938,16.4252 22.5397,0 45.1614,-6.9092 65.5938,-16.4252 30.633,-14.2668 56.2386,-37.7145 82.1325,-59.42694 15.6461,-13.11946 31.5977,-26.39487 44.0096,-42.60798 21.7436,-28.40262 38.6981,-60.67464 51.9339,-93.90573 9.5347,-23.93876 14.8827,-49.46532 19.3418,-74.84427 2.7287,-15.53081 5.7395,-31.37429 4.4851,-47.09302 -0.9753,-12.2219 -7.7402,-23.43269 -9.2504,-35.60008 -1.5883,-12.79667 -0.05,-25.79292 0.2803,-38.68356 0.2177,-8.50833 -0.3491,-17.12557 1.1212,-25.50872 2.2157,-12.63312 9.2971,-24.08477 11.493,-36.72135 1.5691,-9.02928 1.1212,-27.47093 1.1212,-27.47093"
         id="path3780"
         style="color:#000000;fill:none;stroke:#000000;stroke-width:7;stroke-linecap:butt;stroke-linejoin:miter;stroke-miterlimit:4;stroke-opacity:1;stroke-dasharray:none;stroke-dashoffset:0;marker:none;visibility:visible;display:inline;overflow:visible;enable-background:accumulate" />
      <path
         d="m 869.9863,737.4568 c 0,0 16.19596,16.50377 26.34967,21.5843 5.93818,2.97124 12.734,4.11141 19.34177,4.76536 14.70593,1.4554 29.65007,0.0524 44.28987,-1.96221 8.55474,-1.17724 17.04939,-3.1166 25.22841,-5.88662 7.96163,-2.6964 15.74228,-6.10694 22.98588,-10.37168 5.1211,-3.01507 14.2961,-10.65199 14.2961,-10.65199"
         id="path3786"
         style="color:#000000;fill:none;stroke:#000000;stroke-width:7;stroke-linecap:butt;stroke-linejoin:miter;stroke-miterlimit:4;stroke-opacity:1;stroke-dasharray:none;stroke-dashoffset:0;marker:none;visibility:visible;display:inline;overflow:visible;enable-background:accumulate" />
      <path
         d="m 1022.478,623.42191 c 0,0 -2.6312,-8.46218 -5.0457,-12.10714 -4.5711,-6.90044 -10.249,-13.53248 -17.3796,-17.73547 -10.27228,-6.05478 -22.6187,-8.29837 -34.47878,-9.53073 -9.31206,-0.9676 -18.98465,-0.6517 -28.03156,1.75748 -10.26751,2.73422 -19.45966,8.66046 -28.59219,14.09136 -9.04666,5.37984 -19.33521,9.90591 -25.78904,18.22052 -7.55544,9.73385 -13.17483,34.53862 -13.17483,34.53862"
         id="path3788"
         style="color:#000000;fill:none;stroke:#000000;stroke-width:7;stroke-linecap:butt;stroke-linejoin:miter;stroke-miterlimit:4;stroke-opacity:1;stroke-dasharray:none;stroke-dashoffset:0;marker:none;visibility:visible;display:inline;overflow:visible;enable-background:accumulate" />
      <path
         d="m 984.18813,675.84094 a 11.492936,35.039452 0 1 1 -22.98588,0 11.492936,35.039452 0 1 1 22.98588,0 z"
         transform="translate(-6,12)"
         id="path3790"
         style="color:#000000;fill:#000000;stroke:#000000;stroke-width:7;stroke-linecap:butt;stroke-linejoin:miter;stroke-miterlimit:4;stroke-opacity:1;stroke-dasharray:none;stroke-dashoffset:0;marker:none;visibility:visible;display:inline;overflow:visible;enable-background:accumulate" />
      <path
         d="m 1016.7047,675.84094 a 44.009548,80.730896 0 1 1 -88.01906,0 44.009548,80.730896 0 1 1 88.01906,0 z"
         transform="translate(-6,12)"
         id="path3792"
         style="color:#000000;fill:none;stroke:#000000;stroke-width:7;stroke-linecap:butt;stroke-linejoin:miter;stroke-miterlimit:4;stroke-opacity:1;stroke-dasharray:none;stroke-dashoffset:0;marker:none;visibility:visible;display:inline;overflow:visible;enable-background:accumulate" />
      <path
         d="m 932.63684,663.73379 c 3.42991,2.84151 9.1984,0.57937 13.31499,-1.12127 4.62748,-1.9117 8.01593,-6.0683 11.49294,-9.67088 5.68547,-5.8908 11.37282,-12.07152 15.13704,-19.34178 1.79413,-3.46519 3.36065,-7.31052 3.36379,-11.21263 0.002,-2.77891 -0.3695,-6.07341 -2.38268,-7.98899 -1.70745,-1.62467 -4.51778,-1.86265 -6.86773,-1.6819 -3.27864,0.25218 -6.29429,2.08622 -9.11026,3.78427 -4.83057,2.91287 -9.41981,6.4618 -13.03468,10.79215 -3.60593,4.31965 -5.99907,9.56797 -8.26931,14.71657 -1.92531,4.36637 -3.97169,8.85099 -4.48505,13.5953 -0.29306,2.70837 -1.25685,6.39123 0.84095,8.12916 z"
         id="path3794"
         style="color:#000000;fill:none;stroke:#000000;stroke-width:7;stroke-linecap:butt;stroke-linejoin:miter;stroke-miterlimit:4;stroke-opacity:1;stroke-dasharray:none;stroke-dashoffset:0;marker:none;visibility:visible;display:inline;overflow:visible;enable-background:accumulate" />
      <path
         d="m 852.32641,567.58554 c 0,0 29.60335,-20.66915 45.97177,-28.03157 18.00603,-8.099 36.93559,-15.90063 56.62375,-17.37956 17.71032,-1.33036 35.90588,2.06921 52.69937,7.84883 5.3808,1.85185 14.8567,8.40947 14.8567,8.40947"
         id="path3796"
         style="color:#000000;fill:none;stroke:#000000;stroke-width:7;stroke-linecap:butt;stroke-linejoin:miter;stroke-miterlimit:4;stroke-opacity:1;stroke-dasharray:none;stroke-dashoffset:0;marker:none;visibility:visible;display:inline;overflow:visible;enable-background:accumulate" />
      <path
         d="m 982.78655,482.70348 c 0,0 -17.67277,25.25747 -29.15283,35.31976 -15.90962,13.94481 -35.12751,23.73119 -53.82059,33.63788 -15.52497,8.2277 -31.5536,15.72357 -48.21429,21.30398 -10.86629,3.63961 -33.47093,7.84884 -33.47093,7.84884"
         id="path3800"
         style="color:#000000;fill:none;stroke:#000000;stroke-width:7;stroke-linecap:butt;stroke-linejoin:miter;stroke-miterlimit:4;stroke-opacity:1;stroke-dasharray:none;stroke-dashoffset:0;marker:none;visibility:visible;display:inline;overflow:visible;enable-background:accumulate" />
      <path
         d="m 837.25202,664.6897 c 0,0 -1.31925,-14.70543 -5.94639,-19.82131 -4.41156,-4.87754 -11.66398,-7.27542 -18.23561,-7.5321 -5.13605,-0.20061 -11.17474,0.98644 -14.66776,4.75712 -8.40733,9.07563 -8.04625,23.72187 -8.72138,36.07478 -1.46869,26.87279 4.04765,53.90322 10.30708,80.07808 3.94663,16.50347 9.23702,32.90253 17.04633,47.96756 8.11585,15.65639 30.52481,43.21045 30.52481,43.21045"
         id="path3802"
         style="color:#000000;fill:none;stroke:#000000;stroke-width:7;stroke-linecap:butt;stroke-linejoin:miter;stroke-miterlimit:4;stroke-opacity:1;stroke-dasharray:none;stroke-dashoffset:0;marker:none;visibility:visible;display:inline;overflow:visible;enable-background:accumulate" />
      <path
         d="m 834.47704,673.01465 c 0,0 -7.42737,-10.23153 -11.89279,-14.66777 -2.40103,-2.38533 -4.54546,-6.44108 -7.92852,-6.34282 -5.33112,0.15484 -9.65962,5.86018 -11.89279,10.70351 -6.36511,13.80475 -1.68574,30.39561 -1.18927,45.589 0.52005,15.91503 1.0664,31.9921 4.36068,47.57114 2.39466,11.32466 2.86971,24.76423 11.09994,32.90337 3.95178,3.90805 15.06419,3.17141 15.85704,5.15354"
         id="path3804"
         style="color:#000000;fill:none;stroke:#000000;stroke-width:7;stroke-linecap:butt;stroke-linejoin:miter;stroke-miterlimit:4;stroke-opacity:1;stroke-dasharray:none;stroke-dashoffset:0;marker:none;visibility:visible;display:inline;overflow:visible;enable-background:accumulate" />
      <path
         d="m 826.54851,701.55733 c 0,0 -10.80798,7.05317 -13.08206,12.68564 -2.96994,7.356 -3.33506,17.01122 0.79285,23.78556 2.67812,4.39509 13.47849,7.5321 13.47849,7.5321"
         id="path3806"
         style="color:#000000;fill:none;stroke:#000000;stroke-width:7;stroke-linecap:butt;stroke-linejoin:miter;stroke-miterlimit:4;stroke-opacity:1;stroke-dasharray:none;stroke-dashoffset:0;marker:none;visibility:visible;display:inline;overflow:visible;enable-background:accumulate" />
      <path
         d="m 802.76294,695.61094 c 0,0 11.20805,-5.8039 15.46062,-10.30708 4.83925,-5.12443 10.70351,-18.23561 10.70351,-18.23561"
         id="path3808"
         style="color:#000000;fill:none;stroke:#000000;stroke-width:7;stroke-linecap:butt;stroke-linejoin:miter;stroke-miterlimit:4;stroke-opacity:1;stroke-dasharray:none;stroke-dashoffset:0;marker:none;visibility:visible;display:inline;overflow:visible;enable-background:accumulate" />
      <path
         d="m 1089.8671,248.92025 c 0,0 -19.9989,-33.39988 -37.0016,-39.24418 -20.9205,-7.19096 -50.3538,-5.94353 -65.5939,10.09136 -9.47826,9.97258 -4.19584,41.06097 -4.19584,41.06097"
         id="path4072"
         style="color:#000000;fill:none;stroke:#000000;stroke-width:7;stroke-linecap:butt;stroke-linejoin:miter;stroke-miterlimit:4;stroke-opacity:1;stroke-dasharray:none;stroke-dashoffset:0;marker:none;visibility:visible;display:inline;overflow:visible;enable-background:accumulate" />
      <path
         d="m 983.07576,260.8284 c 0,0 -30.11249,-28.80427 -49.06413,-28.72708 -24.80592,0.10103 -53.0344,15.82891 -63.91196,38.12292 -7.93751,16.26827 6.77557,53.87984 6.77557,53.87984"
         id="path4074"
         style="color:#000000;fill:none;stroke:#000000;stroke-width:7;stroke-linecap:butt;stroke-linejoin:miter;stroke-miterlimit:4;stroke-opacity:1;stroke-dasharray:none;stroke-dashoffset:0;marker:none;visibility:visible;display:inline;overflow:visible;enable-background:accumulate" />
      <path
         d="m 876.87524,324.10408 c 0,0 -35.7477,-20.09584 -52.1867,-12.95376 -24.32244,10.56712 -41.97728,43.20484 -38.68355,69.51827 2.5134,20.07947 41.68382,44.13591 41.68382,44.13591"
         id="path4076"
         style="color:#000000;fill:none;stroke:#000000;stroke-width:7;stroke-linecap:butt;stroke-linejoin:miter;stroke-miterlimit:4;stroke-opacity:1;stroke-dasharray:none;stroke-dashoffset:0;marker:none;visibility:visible;display:inline;overflow:visible;enable-background:accumulate" />
      <path
         d="m 827.68881,424.8045 c 0,0 -43.12791,-4.60482 -56.26024,9.12406 -21.58914,22.56985 -26.2683,65.88666 -10.87873,93.06478 8.31897,14.69137 46.16525,20.83609 46.16525,20.83609"
         id="path4078"
         style="color:#000000;fill:none;stroke:#000000;stroke-width:7;stroke-linecap:butt;stroke-linejoin:miter;stroke-miterlimit:4;stroke-opacity:1;stroke-dasharray:none;stroke-dashoffset:0;marker:none;visibility:visible;display:inline;overflow:visible;enable-background:accumulate" />
      <path
         d="m 1130.7932,854.92482 -40.9261,9.45515 -40.9261,-9.45515"
         id="path4244"
         style="color:#000000;fill:none;stroke:#000000;stroke-width:7;stroke-linecap:butt;stroke-linejoin:miter;stroke-miterlimit:4;stroke-opacity:1;stroke-dasharray:none;stroke-dashoffset:0;marker:none;visibility:visible;display:inline;overflow:visible;enable-background:accumulate" />
      <path
         d="m 1309.7479,737.4568 c 0,0 -16.196,16.50377 -26.3497,21.5843 -5.9382,2.97123 -12.734,4.11141 -19.3417,4.76536 -14.7059,1.4554 -29.6501,0.0524 -44.2899,-1.96221 -8.5547,-1.17724 -17.0494,-3.1166 -25.2284,-5.88662 -7.9616,-2.6964 -15.7423,-6.10694 -22.9859,-10.37168 -5.1211,-3.01506 -14.2961,-10.65199 -14.2961,-10.65199"
         id="path4248"
         style="color:#000000;fill:none;stroke:#000000;stroke-width:7;stroke-linecap:butt;stroke-linejoin:miter;stroke-miterlimit:4;stroke-opacity:1;stroke-dasharray:none;stroke-dashoffset:0;marker:none;visibility:visible;display:inline;overflow:visible;enable-background:accumulate" />
      <path
         d="m 1157.2562,623.42191 c 0,0 2.6312,-8.46218 5.0457,-12.10714 4.5711,-6.90044 10.249,-13.53248 17.3796,-17.73547 10.2723,-6.05478 22.6187,-8.29837 34.4788,-9.53073 9.312,-0.9676 18.9846,-0.65169 28.0315,1.75748 10.2675,2.73422 19.4597,8.66046 28.5922,14.09136 9.0467,5.37984 19.3353,9.90589 25.7891,18.22052 7.5554,9.73385 13.1748,34.53862 13.1748,34.53862"
         id="path4250"
         style="color:#000000;fill:none;stroke:#000000;stroke-width:7;stroke-linecap:butt;stroke-linejoin:miter;stroke-miterlimit:4;stroke-opacity:1;stroke-dasharray:none;stroke-dashoffset:0;marker:none;visibility:visible;display:inline;overflow:visible;enable-background:accumulate" />
      <path
         d="m 984.18813,675.84094 a 11.492936,35.039452 0 1 1 -22.98588,0 11.492936,35.039452 0 1 1 22.98588,0 z"
         transform="matrix(-1,0,0,1,2185.7342,12)"
         id="path4252"
         style="color:#000000;fill:#000000;stroke:#000000;stroke-width:7;stroke-linecap:butt;stroke-linejoin:miter;stroke-miterlimit:4;stroke-opacity:1;stroke-dasharray:none;stroke-dashoffset:0;marker:none;visibility:visible;display:inline;overflow:visible;enable-background:accumulate" />
      <path
         d="m 1016.7047,675.84094 a 44.009548,80.730896 0 1 1 -88.01906,0 44.009548,80.730896 0 1 1 88.01906,0 z"
         transform="translate(240.3438,12)"
         id="path4254"
         style="color:#000000;fill:none;stroke:#000000;stroke-width:7;stroke-linecap:butt;stroke-linejoin:miter;stroke-miterlimit:4;stroke-opacity:1;stroke-dasharray:none;stroke-dashoffset:0;marker:none;visibility:visible;display:inline;overflow:visible;enable-background:accumulate" />
      <path
         d="m 1178.9806,663.73379 c 3.4299,2.84153 9.1984,0.57937 13.315,-1.12127 4.6275,-1.9117 8.016,-6.06829 11.493,-9.67088 5.6855,-5.89079 11.3728,-12.07153 15.137,-19.34178 1.7941,-3.4652 3.3607,-7.31052 3.3638,-11.21263 0,-2.77891 -0.3695,-6.07341 -2.3827,-7.98899 -1.7074,-1.62466 -4.5178,-1.86264 -6.8677,-1.6819 -3.2787,0.25217 -6.2943,2.08622 -9.1103,3.78427 -4.8306,2.91287 -9.4198,6.46179 -13.0347,10.79215 -3.6059,4.31965 -5.9991,9.56796 -8.2693,14.71657 -1.9253,4.36636 -3.9716,8.851 -4.485,13.5953 -0.2931,2.70837 -1.2569,6.39123 0.8409,8.12916 z"
         id="path4256"
         style="color:#000000;fill:none;stroke:#000000;stroke-width:7;stroke-linecap:butt;stroke-linejoin:miter;stroke-miterlimit:4;stroke-opacity:1;stroke-dasharray:none;stroke-dashoffset:0;marker:none;visibility:visible;display:inline;overflow:visible;enable-background:accumulate" />
      <path
         d="m 1327.4078,567.58554 c 0,0 -29.6034,-20.66915 -45.9718,-28.03157 -18.006,-8.099 -36.9356,-15.90063 -56.6237,-17.37956 -17.7103,-1.33036 -35.9059,2.0692 -52.6994,7.84883 -5.3808,1.85185 -14.8567,8.40947 -14.8567,8.40947"
         id="path4258"
         style="color:#000000;fill:none;stroke:#000000;stroke-width:7;stroke-linecap:butt;stroke-linejoin:miter;stroke-miterlimit:4;stroke-opacity:1;stroke-dasharray:none;stroke-dashoffset:0;marker:none;visibility:visible;display:inline;overflow:visible;enable-background:accumulate" />
      <path
         d="m 1227.6154,515.22009 c 0,0 -27.2962,-7.43124 -40.9261,-11.21263 -16.647,-4.61842 -34.0683,-7.09249 -49.8961,-14.01578 -16.8187,-7.35671 -46.9261,-28.82441 -46.9261,-28.82441 0,0 -30.1074,21.4677 -46.9261,28.82441 -15.8278,6.92329 -33.2492,9.39736 -49.89615,14.01578 -13.62994,3.78139 -40.92608,11.21263 -40.92608,11.21263"
         id="path4260"
         style="color:#000000;fill:none;stroke:#000000;stroke-width:7;stroke-linecap:butt;stroke-linejoin:miter;stroke-miterlimit:4;stroke-opacity:1;stroke-dasharray:none;stroke-dashoffset:0;marker:none;visibility:visible;display:inline;overflow:visible;enable-background:accumulate" />
      <path
         d="m 1196.9476,482.70348 c 0,0 17.6728,25.25747 29.1529,35.31976 15.9096,13.9448 35.1275,23.73119 53.8206,33.63788 15.525,8.2277 31.5536,15.72357 48.2143,21.30398 10.8663,3.6396 33.4709,7.84884 33.4709,7.84884"
         id="path4262"
         style="color:#000000;fill:none;stroke:#000000;stroke-width:7;stroke-linecap:butt;stroke-linejoin:miter;stroke-miterlimit:4;stroke-opacity:1;stroke-dasharray:none;stroke-dashoffset:0;marker:none;visibility:visible;display:inline;overflow:visible;enable-background:accumulate" />
      <path
         d="m 1342.4822,664.6897 c 0,0 1.3193,-14.70543 5.9464,-19.82131 4.4116,-4.87753 11.664,-7.27542 18.2356,-7.5321 5.136,-0.20061 11.1747,0.98645 14.6677,4.75712 8.4073,9.07563 8.0463,23.72187 8.7214,36.07478 1.4687,26.87279 -4.0477,53.90322 -10.3071,80.07808 -3.9466,16.50347 -9.237,32.90253 -17.0463,47.96756 -8.1158,15.65639 -30.5248,43.21045 -30.5248,43.21045"
         id="path4264"
         style="color:#000000;fill:none;stroke:#000000;stroke-width:7;stroke-linecap:butt;stroke-linejoin:miter;stroke-miterlimit:4;stroke-opacity:1;stroke-dasharray:none;stroke-dashoffset:0;marker:none;visibility:visible;display:inline;overflow:visible;enable-background:accumulate" />
      <path
         d="m 1345.2572,673.01465 c 0,0 7.4274,-10.23153 11.8928,-14.66777 2.401,-2.38533 4.5454,-6.44108 7.9285,-6.34282 5.3311,0.15484 9.6596,5.86018 11.8928,10.70351 6.3651,13.80475 1.6857,30.39561 1.1892,45.589 -0.5201,15.91503 -1.0664,31.9921 -4.3607,47.57114 -2.3947,11.32465 -2.8697,24.76422 -11.0999,32.90337 -3.9518,3.90804 -15.0642,3.17141 -15.857,5.15354"
         id="path4266"
         style="color:#000000;fill:none;stroke:#000000;stroke-width:7;stroke-linecap:butt;stroke-linejoin:miter;stroke-miterlimit:4;stroke-opacity:1;stroke-dasharray:none;stroke-dashoffset:0;marker:none;visibility:visible;display:inline;overflow:visible;enable-background:accumulate" />
      <path
         d="m 1353.1857,701.55733 c 0,0 10.808,7.05316 13.0821,12.68564 2.9699,7.356 3.335,17.01123 -0.7929,23.78556 -2.6781,4.39509 -13.4785,7.5321 -13.4785,7.5321"
         id="path4268"
         style="color:#000000;fill:none;stroke:#000000;stroke-width:7;stroke-linecap:butt;stroke-linejoin:miter;stroke-miterlimit:4;stroke-opacity:1;stroke-dasharray:none;stroke-dashoffset:0;marker:none;visibility:visible;display:inline;overflow:visible;enable-background:accumulate" />
      <path
         d="m 1376.9713,695.61094 c 0,0 -11.2081,-5.80389 -15.4607,-10.30708 -4.8392,-5.12442 -10.7035,-18.23561 -10.7035,-18.23561"
         id="path4270"
         style="color:#000000;fill:none;stroke:#000000;stroke-width:7;stroke-linecap:butt;stroke-linejoin:miter;stroke-miterlimit:4;stroke-opacity:1;stroke-dasharray:none;stroke-dashoffset:0;marker:none;visibility:visible;display:inline;overflow:visible;enable-background:accumulate" />
      <path
         d="m 1089.8671,248.92025 c 0,0 19.9989,-33.39988 37.0016,-39.24418 20.9205,-7.19096 50.3538,-5.94354 65.5939,10.09136 9.4783,9.97259 4.1958,41.06097 4.1958,41.06097"
         id="path4314"
         style="color:#000000;fill:none;stroke:#000000;stroke-width:7;stroke-linecap:butt;stroke-linejoin:miter;stroke-miterlimit:4;stroke-opacity:1;stroke-dasharray:none;stroke-dashoffset:0;marker:none;visibility:visible;display:inline;overflow:visible;enable-background:accumulate" />
      <path
         d="m 1196.6584,260.8284 c 0,0 30.1125,-28.80428 49.0642,-28.72708 24.8059,0.10104 53.0343,15.82893 63.9119,38.12292 7.9375,16.26826 -6.7755,53.87984 -6.7755,53.87984"
         id="path4316"
         style="color:#000000;fill:none;stroke:#000000;stroke-width:7;stroke-linecap:butt;stroke-linejoin:miter;stroke-miterlimit:4;stroke-opacity:1;stroke-dasharray:none;stroke-dashoffset:0;marker:none;visibility:visible;display:inline;overflow:visible;enable-background:accumulate" />
      <path
         d="m 1302.859,324.10408 c 0,0 35.7477,-20.09585 52.1867,-12.95376 24.3224,10.56712 41.9772,43.20485 38.6835,69.51827 -2.5134,20.07946 -41.6838,44.13591 -41.6838,44.13591"
         id="path4318"
         style="color:#000000;fill:none;stroke:#000000;stroke-width:7;stroke-linecap:butt;stroke-linejoin:miter;stroke-miterlimit:4;stroke-opacity:1;stroke-dasharray:none;stroke-dashoffset:0;marker:none;visibility:visible;display:inline;overflow:visible;enable-background:accumulate" />
      <path
         d="m 1352.0454,424.8045 c 0,0 43.1279,-4.60481 56.2602,9.12406 21.5891,22.56985 26.2684,65.88666 10.8788,93.06478 -8.319,14.69138 -46.1653,20.83609 -46.1653,20.83609"
         id="path4320"
         style="color:#000000;fill:none;stroke:#000000;stroke-width:7;stroke-linecap:butt;stroke-linejoin:miter;stroke-miterlimit:4;stroke-opacity:1;stroke-dasharray:none;stroke-dashoffset:0;marker:none;visibility:visible;display:inline;overflow:visible;enable-background:accumulate" />
    </g>
    <path
       d="m 629.02824,4573.6296 c 0,0 1.68542,29.4557 11.77326,38.1229 12.46875,10.7128 34.63622,15.6746 48.77491,7.2882 10.88708,-6.4577 13.08305,-35.6498 13.08305,-35.6498"
       id="path4410"
       style="color:#000000;fill:none;stroke:#000000;stroke-width:7;stroke-linecap:butt;stroke-linejoin:miter;stroke-miterlimit:4;stroke-opacity:1;stroke-dasharray:none;stroke-dashoffset:0;marker:none;visibility:visible;display:inline;overflow:visible;enable-background:accumulate" />
    <path
       d="m 702.65946,4583.3909 c 0,0 2.2848,32.453 13.26662,42.3774 11.03976,9.9768 30.44194,15.6678 43.72924,8.9701 13.68463,-6.898 19.36067,-41.6993 19.36067,-41.6993"
       id="path4412"
       style="color:#000000;fill:none;stroke:#000000;stroke-width:7;stroke-linecap:butt;stroke-linejoin:miter;stroke-miterlimit:4;stroke-opacity:1;stroke-dasharray:none;stroke-dashoffset:0;marker:none;visibility:visible;display:inline;overflow:visible;enable-background:accumulate" />
    <path
       d="m 779.01599,4593.0391 c 0,0 -5.41144,37.2472 6.42836,48.4268 14.57931,13.7664 43.62033,16.0689 59.98755,4.4851 12.42293,-8.7922 11.93029,-44.0722 11.93029,-44.0722"
       id="path4414"
       style="color:#000000;fill:none;stroke:#000000;stroke-width:7;stroke-linecap:butt;stroke-linejoin:miter;stroke-miterlimit:4;stroke-opacity:1;stroke-dasharray:none;stroke-dashoffset:0;marker:none;visibility:visible;display:inline;overflow:visible;enable-background:accumulate" />
    <path
       d="m 857.36218,4601.8788 c 0,0 0.254,39.4189 13.29812,51.3604 10.89978,9.9784 31.10109,14.9631 43.72924,7.2882 15.14293,-9.2033 16.39109,-50.5708 16.39109,-50.5708"
       id="path4416"
       style="color:#000000;fill:none;stroke:#000000;stroke-width:7;stroke-linecap:butt;stroke-linejoin:miter;stroke-miterlimit:4;stroke-opacity:1;stroke-dasharray:none;stroke-dashoffset:0;marker:none;visibility:visible;display:inline;overflow:visible;enable-background:accumulate" />
    <path
       d="m 930.78063,4609.9566 c 0,0 -0.70275,42.995 13.88299,55.0559 12.40644,10.2589 34.58365,11.3687 48.21429,2.8031 15.33509,-9.6367 20.68919,-50.2419 20.68919,-50.2419"
       id="path4418"
       style="color:#000000;fill:none;stroke:#000000;stroke-width:7;stroke-linecap:butt;stroke-linejoin:miter;stroke-miterlimit:4;stroke-opacity:1;stroke-dasharray:none;stroke-dashoffset:0;marker:none;visibility:visible;display:inline;overflow:visible;enable-background:accumulate" />
    <path
       d="m 1013.5671,4617.5737 c 0,0 -5.9646,42.5857 7.903,54.727 12.9363,11.3259 37.3957,10.2808 51.5781,0.5606 15.3888,-10.547 19.6247,-52.4152 19.6247,-52.4152"
       id="path4420"
       style="color:#000000;fill:none;stroke:#000000;stroke-width:7;stroke-linecap:butt;stroke-linejoin:miter;stroke-miterlimit:4;stroke-opacity:1;stroke-dasharray:none;stroke-dashoffset:0;marker:none;visibility:visible;display:inline;overflow:visible;enable-background:accumulate" />
    <path
       d="m 1550.7059,4573.6296 c 0,0 -1.6855,29.4557 -11.7733,38.1229 -12.4688,10.7128 -34.6362,15.6746 -48.7749,7.2882 -10.8871,-6.4577 -13.0831,-35.6498 -13.0831,-35.6498"
       id="path4424"
       style="color:#000000;fill:none;stroke:#000000;stroke-width:7;stroke-linecap:butt;stroke-linejoin:miter;stroke-miterlimit:4;stroke-opacity:1;stroke-dasharray:none;stroke-dashoffset:0;marker:none;visibility:visible;display:inline;overflow:visible;enable-background:accumulate" />
    <path
       d="m 1477.0746,4583.3909 c 0,0 -2.2848,32.453 -13.2666,42.3774 -11.0397,9.9768 -30.4419,15.6678 -43.7292,8.9701 -13.6846,-6.898 -19.3607,-41.6993 -19.3607,-41.6993"
       id="path4426"
       style="color:#000000;fill:none;stroke:#000000;stroke-width:7;stroke-linecap:butt;stroke-linejoin:miter;stroke-miterlimit:4;stroke-opacity:1;stroke-dasharray:none;stroke-dashoffset:0;marker:none;visibility:visible;display:inline;overflow:visible;enable-background:accumulate" />
    <path
       d="m 1400.7181,4593.0391 c 0,0 5.4115,37.2472 -6.4283,48.4268 -14.5793,13.7664 -43.6204,16.0689 -59.9876,4.4851 -12.4229,-8.7922 -11.9303,-44.0722 -11.9303,-44.0722"
       id="path4428"
       style="color:#000000;fill:none;stroke:#000000;stroke-width:7;stroke-linecap:butt;stroke-linejoin:miter;stroke-miterlimit:4;stroke-opacity:1;stroke-dasharray:none;stroke-dashoffset:0;marker:none;visibility:visible;display:inline;overflow:visible;enable-background:accumulate" />
    <path
       d="m 1322.3719,4601.8788 c 0,0 -0.254,39.4189 -13.2981,51.3604 -10.8998,9.9784 -31.1011,14.9631 -43.7292,7.2882 -15.1429,-9.2033 -16.3911,-50.5708 -16.3911,-50.5708"
       id="path4430"
       style="color:#000000;fill:none;stroke:#000000;stroke-width:7;stroke-linecap:butt;stroke-linejoin:miter;stroke-miterlimit:4;stroke-opacity:1;stroke-dasharray:none;stroke-dashoffset:0;marker:none;visibility:visible;display:inline;overflow:visible;enable-background:accumulate" />
    <path
       d="m 1248.9535,4609.9566 c 0,0 0.7027,42.995 -13.883,55.0559 -12.4064,10.2589 -34.5837,11.3687 -48.2143,2.8031 -15.3351,-9.6367 -20.6892,-50.2419 -20.6892,-50.2419"
       id="path4432"
       style="color:#000000;fill:none;stroke:#000000;stroke-width:7;stroke-linecap:butt;stroke-linejoin:miter;stroke-miterlimit:4;stroke-opacity:1;stroke-dasharray:none;stroke-dashoffset:0;marker:none;visibility:visible;display:inline;overflow:visible;enable-background:accumulate" />
    <path
       d="m 1166.167,4617.5737 c 0,0 5.9646,42.5857 -7.903,54.727 -12.9363,11.3259 -37.3957,10.2808 -51.5781,0.5606 -15.3888,-10.547 -19.6247,-52.4152 -19.6247,-52.4152"
       id="path4434"
       style="color:#000000;fill:none;stroke:#000000;stroke-width:7;stroke-linecap:butt;stroke-linejoin:miter;stroke-miterlimit:4;stroke-opacity:1;stroke-dasharray:none;stroke-dashoffset:0;marker:none;visibility:visible;display:inline;overflow:visible;enable-background:accumulate" />
  </g>
  <path
     d="m 3165.4909,1422.3214 -27.471,-33.6379 -48.7749,-2.8031 -31.956,17.9402 -20.1827,32.5166 -10.652,30.2741"
     id="path4540"
     style="color:#000000;fill:none;stroke:#000000;stroke-width:7;stroke-linecap:butt;stroke-linejoin:miter;stroke-miterlimit:4;stroke-opacity:1;stroke-dasharray:none;stroke-dashoffset:0;marker:none;visibility:visible;display:inline;overflow:visible;enable-background:accumulate" />
  <path
     d="m 3026.4543,1529.402 11.2127,29.7134 30.8347,10.652 53.8206,-2.2425 43.1686,-15.137"
     id="path4542"
     style="color:#000000;fill:none;stroke:#000000;stroke-width:7;stroke-linecap:butt;stroke-linejoin:miter;stroke-miterlimit:4;stroke-opacity:1;stroke-dasharray:none;stroke-dashoffset:0;marker:none;visibility:visible;display:inline;overflow:visible;enable-background:accumulate" />
  <path
     d="m 3179.9003,1479.5059 a 56.063122,122.77824 0 1 1 -112.1263,0 56.063122,122.77824 0 1 1 112.1263,0 z"
     transform="translate(-10,0)"
     id="path4544"
     style="color:#000000;fill:none;stroke:#000000;stroke-width:7;stroke-linecap:butt;stroke-linejoin:miter;stroke-miterlimit:4;stroke-opacity:1;stroke-dasharray:none;stroke-dashoffset:0;marker:none;visibility:visible;display:inline;overflow:visible;enable-background:accumulate" />
  <path
     d="m 3237.6453,1479.5059 a 113.80814,113.80814 0 1 1 -227.6163,0 113.80814,113.80814 0 1 1 227.6163,0 z"
     transform="translate(-22,0)"
     id="path4548"
     style="color:#000000;fill:none;stroke:#000000;stroke-width:7;stroke-linecap:butt;stroke-linejoin:miter;stroke-miterlimit:4;stroke-opacity:1;stroke-dasharray:none;stroke-dashoffset:0;marker:none;visibility:visible;display:inline;overflow:visible;enable-background:accumulate" />
  <path
     d="m 3231.4784,1677.4086 -25.789,-7.2882"
     id="path4550"
     style="color:#000000;fill:none;stroke:#000000;stroke-width:7;stroke-linecap:butt;stroke-linejoin:miter;stroke-miterlimit:4;stroke-opacity:1;stroke-dasharray:none;stroke-dashoffset:0;marker:none;visibility:visible;display:inline;overflow:visible;enable-background:accumulate" />
  <path
     d="m 3181.0216,1766.549 28.5922,11.2126 21.8646,2.8032"
     id="path4552"
     style="color:#000000;fill:none;stroke:#000000;stroke-width:7;stroke-linecap:butt;stroke-linejoin:miter;stroke-miterlimit:4;stroke-opacity:1;stroke-dasharray:none;stroke-dashoffset:0;marker:none;visibility:visible;display:inline;overflow:visible;enable-background:accumulate" />
  <path
     d="m 3231.4784,1864.0988 -82.3214,-19.0614 -79.701,-65.5183 -62.2301,-92.5797 -25.8804,-61.6695 -10.485,-75.6852 12.8189,-40.9261 -0.7118,-85.7766 -14.8189,-30.274 16.0913,-94.7467 23.3796,-60.6396 48.2143,-56.1544 105.005,-33.0773 70.6394,-2.8031 70.6395,2.8031 105.005,33.0773 48.2143,56.1544 23.3796,60.6396 16.0913,94.7467 -14.8189,30.274 -0.7118,85.7766 12.8189,40.9261 -10.485,75.6852 -25.8804,61.6695 -62.2301,92.5797 -79.701,65.5183 -82.3214,19.0614"
     id="path4554"
     style="color:#000000;fill:none;stroke:#000000;stroke-width:7;stroke-linecap:butt;stroke-linejoin:miter;stroke-miterlimit:4;stroke-opacity:1;stroke-dasharray:none;stroke-dashoffset:0;marker:none;visibility:visible;display:inline;overflow:visible;enable-background:accumulate" />
  <path
     d="m 3094.0525,1803.2077 5.5142,59.8782 -18.9927,39.6426 -87.5566,42.8141 -104.6565,53.1211 -60.2568,65.0139 -32.5069,130.0277 -16.6499,185.5275 6.3428,155.399 0.7928,133.9921 -3.9642,91.178 -10.3071,65.0139 -0.7928,113.3778 -0.7929,132.4064 2.3786,63.4282 0.7928,80.8709 -7.1357,75.321 -1.5857,48.3639 19.8213,7.9286 13.4785,-26.957 5.55,-64.221 9.8213,-37.7856"
     id="path4712"
     style="color:#000000;fill:none;stroke:#000000;stroke-width:7;stroke-linecap:butt;stroke-linejoin:miter;stroke-miterlimit:4;stroke-opacity:1;stroke-dasharray:none;stroke-dashoffset:0;marker:none;visibility:visible;display:inline;overflow:visible;enable-background:accumulate" />
  <path
     d="m 2773.3973,3334.6198 -5.55,46.7783 4.7572,41.2283 10.307,45.1926 22.1999,15.0642 21.407,-7.9286 34.8855,-137.1634 9.5142,-70.5639 1.5857,-91.178 -2.3785,-22.9927 -1.5857,-61.0496 27.7498,-192.6631 11.0999,-101.4851 0.7929,-67.3925 0.7929,-58.671 16.6141,-128.4421 5.6215,-96.728 3.9285,-68.9781"
     id="path4714"
     style="color:#000000;fill:none;stroke:#000000;stroke-width:7;stroke-linecap:butt;stroke-linejoin:miter;stroke-miterlimit:4;stroke-opacity:1;stroke-dasharray:none;stroke-dashoffset:0;marker:none;visibility:visible;display:inline;overflow:visible;enable-background:accumulate" />
  <path
     d="m 2964.5104,2126.6915 -24.6856,77.771 -28.5427,119.7564 3.9643,61.6069 28.5427,60.9424 42.8855,18.2356"
     id="path4716"
     style="color:#000000;fill:none;stroke:#000000;stroke-width:7;stroke-linecap:butt;stroke-linejoin:miter;stroke-miterlimit:4;stroke-opacity:1;stroke-dasharray:none;stroke-dashoffset:0;marker:none;visibility:visible;display:inline;overflow:visible;enable-background:accumulate" />
  <path
     d="m 2944.6534,2425.2182 2.3786,103.8637 19.8213,176.0132 -2.3786,153.0205 -38.8498,115.7564 -38.0569,193.456 -8.7213,138.7491 14.7928,234.6843 9.5142,242.6128 1.5857,95.1423 10.8286,216.4486 -0.7928,239.4414 3.1714,187.906 3.9643,114.1707 -19.8213,50.7426 -22.1999,65.0139 19.8213,37.264 45.9854,15.8571 48.364,11.8928 42.0212,-6.3429 24.3727,-16.6498 15.2699,-91.9709 1.5857,-40.4355 -6.3428,-49.9497 -4.7571,-44.3997 9.5142,-142.7134 34.0212,-242.6128 12.6856,-149.0562 -11.55,-149.0563 17.7856,-122.0992 19.4785,-125.2707 22.9927,-199.0059 12.1641,-254.5056"
     id="path4718"
     style="color:#000000;fill:none;stroke:#000000;stroke-width:7;stroke-linecap:butt;stroke-linejoin:miter;stroke-miterlimit:4;stroke-opacity:1;stroke-dasharray:none;stroke-dashoffset:0;marker:none;visibility:visible;display:inline;overflow:visible;enable-background:accumulate" />
  <path
     d="m 3297.4658,1422.3214 27.471,-33.6379 48.7749,-2.8031 31.956,17.9402 20.1827,32.5166 10.652,30.2741"
     id="path4765"
     style="color:#000000;fill:none;stroke:#000000;stroke-width:7;stroke-linecap:butt;stroke-linejoin:miter;stroke-miterlimit:4;stroke-opacity:1;stroke-dasharray:none;stroke-dashoffset:0;marker:none;visibility:visible;display:inline;overflow:visible;enable-background:accumulate" />
  <path
     d="m 3436.5024,1529.402 -11.2127,29.7134 -30.8347,10.652 -53.8206,-2.2425 -43.1686,-15.137"
     id="path4767"
     style="color:#000000;fill:none;stroke:#000000;stroke-width:7;stroke-linecap:butt;stroke-linejoin:miter;stroke-miterlimit:4;stroke-opacity:1;stroke-dasharray:none;stroke-dashoffset:0;marker:none;visibility:visible;display:inline;overflow:visible;enable-background:accumulate" />
  <path
     d="m 3179.9003,1479.5059 a 56.063122,122.77824 0 1 1 -112.1263,0 56.063122,122.77824 0 1 1 112.1263,0 z"
     transform="matrix(-1,0,0,1,6472.9567,0)"
     id="path4769"
     style="color:#000000;fill:none;stroke:#000000;stroke-width:7;stroke-linecap:butt;stroke-linejoin:miter;stroke-miterlimit:4;stroke-opacity:1;stroke-dasharray:none;stroke-dashoffset:0;marker:none;visibility:visible;display:inline;overflow:visible;enable-background:accumulate" />
  <path
     d="m 3237.6453,1479.5059 a 113.80814,113.80814 0 1 1 -227.6163,0 113.80814,113.80814 0 1 1 227.6163,0 z"
     transform="matrix(-1,0,0,1,6484.9567,0)"
     id="path4771"
     style="color:#000000;fill:none;stroke:#000000;stroke-width:7;stroke-linecap:butt;stroke-linejoin:miter;stroke-miterlimit:4;stroke-opacity:1;stroke-dasharray:none;stroke-dashoffset:0;marker:none;visibility:visible;display:inline;overflow:visible;enable-background:accumulate" />
  <path
     d="m 3231.4783,1677.4086 25.789,-7.2882"
     id="path4773"
     style="color:#000000;fill:none;stroke:#000000;stroke-width:7;stroke-linecap:butt;stroke-linejoin:miter;stroke-miterlimit:4;stroke-opacity:1;stroke-dasharray:none;stroke-dashoffset:0;marker:none;visibility:visible;display:inline;overflow:visible;enable-background:accumulate" />
  <path
     d="m 3281.9351,1766.549 -28.5922,11.2126 -21.8646,2.8032"
     id="path4775"
     style="color:#000000;fill:none;stroke:#000000;stroke-width:7;stroke-linecap:butt;stroke-linejoin:miter;stroke-miterlimit:4;stroke-opacity:1;stroke-dasharray:none;stroke-dashoffset:0;marker:none;visibility:visible;display:inline;overflow:visible;enable-background:accumulate" />
  <path
     d="m 3368.9042,1803.2077 -5.5142,59.8782 18.9927,39.6426 87.5566,42.8141 104.6565,53.1211 60.2568,65.0139 32.5069,130.0277 16.6499,185.5275 -6.3428,155.399 -0.7928,133.9921 3.9642,91.178 10.3071,65.0139 0.7928,113.3778 0.7929,132.4064 -2.3786,63.4282 -0.7928,80.8709 7.1357,75.321 1.5857,48.3639 -19.8213,7.9286 -13.4785,-26.957 -5.55,-64.221 -9.8213,-37.7856"
     id="path4779"
     style="color:#000000;fill:none;stroke:#000000;stroke-width:7;stroke-linecap:butt;stroke-linejoin:miter;stroke-miterlimit:4;stroke-opacity:1;stroke-dasharray:none;stroke-dashoffset:0;marker:none;visibility:visible;display:inline;overflow:visible;enable-background:accumulate" />
  <path
     d="m 3689.5594,3334.6198 5.55,46.7783 -4.7572,41.2283 -10.307,45.1926 -22.1999,15.0642 -21.407,-7.9286 -34.8855,-137.1634 -9.5142,-70.5639 -1.5857,-91.178 2.3785,-22.9927 1.5857,-61.0496 -27.7498,-192.6631 -11.0999,-101.4851 -0.7929,-67.3925 -0.7929,-58.671 -16.6141,-128.4421 -5.6215,-96.728 -3.9285,-68.9781"
     id="path4781"
     style="color:#000000;fill:none;stroke:#000000;stroke-width:7;stroke-linecap:butt;stroke-linejoin:miter;stroke-miterlimit:4;stroke-opacity:1;stroke-dasharray:none;stroke-dashoffset:0;marker:none;visibility:visible;display:inline;overflow:visible;enable-background:accumulate" />
  <path
     d="m 3498.4463,2126.6915 24.6856,77.771 28.5427,119.7564 -3.9643,61.6069 -28.5427,60.9424 -42.8855,18.2356"
     id="path4783"
     style="color:#000000;fill:none;stroke:#000000;stroke-width:7;stroke-linecap:butt;stroke-linejoin:miter;stroke-miterlimit:4;stroke-opacity:1;stroke-dasharray:none;stroke-dashoffset:0;marker:none;visibility:visible;display:inline;overflow:visible;enable-background:accumulate" />
  <path
     d="m 3518.3033,2425.2182 -2.3786,103.8637 -19.8213,176.0132 2.3786,153.0205 38.8498,115.7564 38.0569,193.456 8.7213,138.7491 -14.7928,234.6843 -9.5142,242.6128 -1.5857,95.1423 -10.8286,216.4486 0.7928,239.4414 -3.1714,187.906 -3.9643,114.1707 19.8213,50.7426 22.1999,65.0139 -19.8213,37.264 -45.9854,15.8571 -48.364,11.8928 -42.0212,-6.3429 -24.3727,-16.6498 -15.2699,-91.9709 -1.5857,-40.4355 6.3428,-49.9497 4.7571,-44.3997 -9.5142,-142.7134 -34.0212,-242.6128 -12.6856,-149.0562 11.55,-149.0563 -17.7856,-122.0992 -19.4785,-125.2707 -22.9927,-199.0059 -12.1641,-254.5056"
     id="path4785"
     style="color:#000000;fill:none;stroke:#000000;stroke-width:7;stroke-linecap:butt;stroke-linejoin:miter;stroke-miterlimit:4;stroke-opacity:1;stroke-dasharray:none;stroke-dashoffset:0;marker:none;visibility:visible;display:inline;overflow:visible;enable-background:accumulate" />
  <path
     d="m 3518.3033,2878.7297 110.9993,375.812 130.0278,260.0556 -150.6419,53.9139 -199.7988,41.2283 -177.4113,5.2429 -177.4114,-5.2429 -199.7988,-41.2283 -150.6419,-53.9139 130.0278,-260.0556 110.9993,-375.812"
     id="path4787"
     style="color:#000000;fill:none;stroke:#000000;stroke-width:7;stroke-linecap:butt;stroke-linejoin:miter;stroke-miterlimit:4;stroke-opacity:1;stroke-dasharray:none;stroke-dashoffset:0;marker:none;visibility:visible;display:inline;overflow:visible;enable-background:accumulate" />
</svg>
